<?xml version="1.0" encoding="utf-8"?>
<!-- Designed by Vexels.com - 2016 All Rights Reserved - https://vexels.com/terms-and-conditions/  -->

<svg version="1.0" id="Capa_1" xmlns="http://www.w3.org/2000/svg" xmlns:xlink="http://www.w3.org/1999/xlink" x="0px" y="0px"
	 width="1200px" height="1200px" viewBox="0 0 1200 1200" enable-background="new 0 0 1200 1200" xml:space="preserve">
<path fill="#0000FF" d="M600.033,124.418c-178.062,0-322.428,144.35-322.428,322.428c0,153.768,107.697,282.316,251.761,314.544
	l70.667,314.192l70.685-314.192c144.012-32.178,251.678-160.776,251.678-314.544C922.396,268.768,778.095,124.418,600.033,124.418z
	 M600.033,697.825c-138.606,0-250.978-112.408-250.978-250.979c0-138.638,112.372-250.962,250.978-250.962
	c138.588,0,250.945,112.324,250.945,250.962C850.978,585.417,738.621,697.825,600.033,697.825z"/>
</svg>
